<svg width="16" height="16" viewBox="70 70.5 160 160" fill="none" xmlns="http://www.w3.org/2000/svg">
<path d="M141.886 85H158.113V103.677H141.886V85Z" fill="white"/>
<path d="M118.288 199.483H88.0263C86.0317 199.483 86.0317 197.478 86.0317 197.478V121.631C86.0317 121.631 86.0317 119.644 88.0263 119.644H141.886L141.886 103.677H122.084C122.084 103.677 118.076 103.677 114.069 105.663L76.0026 121.631C71.9946 123.618 70 127.628 70 131.602V195.472C70 197.478 70 199.464 71.9946 201.469L84.0184 213.445C86.013 215.45 87.523 215.45 90.021 215.45H118.293C118.295 210.597 118.297 204.863 118.299 199.593H180.991V215.45H209.979C212.477 215.45 213.987 215.45 215.982 213.445L228.005 201.469C230 199.483 230 197.478 230 195.472V131.602C230 127.61 228.005 123.618 223.997 121.631L185.931 105.663C181.924 103.677 177.916 103.677 177.916 103.677H158.113L158.113 119.644H211.992C213.987 119.644 213.987 121.631 213.987 121.631V197.478C213.987 197.478 213.987 199.483 211.992 199.483H181.051V183.739H118.304C118.304 185.267 118.29 198.147 118.288 199.483Z" fill="white"/>
<path d="M118.288 159.233H181.051V143.378H118.304C118.304 144.998 118.288 159.382 118.288 159.233Z" fill="white"/>
</svg>
